<svg width="16" height="16" viewBox="0 0 16 16" fill="none" xmlns="http://www.w3.org/2000/svg">
<path fill-rule="evenodd" clip-rule="evenodd" d="M8.00016 1.33301C4.31816 1.33301 1.3335 4.31767 1.3335 7.99967C1.3335 11.6817 4.31816 14.6663 8.00016 14.6663C11.6822 14.6663 14.6668 11.6817 14.6668 7.99967C14.6668 4.31767 11.6822 1.33301 8.00016 1.33301ZM8.50016 4.66634C8.50016 4.53373 8.44748 4.40656 8.35372 4.31279C8.25995 4.21902 8.13277 4.16634 8.00016 4.16634C7.86755 4.16634 7.74038 4.21902 7.64661 4.31279C7.55284 4.40656 7.50016 4.53373 7.50016 4.66634V11.333C7.50016 11.4656 7.55284 11.5928 7.64661 11.6866C7.74038 11.7803 7.86755 11.833 8.00016 11.833C8.13277 11.833 8.25995 11.7803 8.35372 11.6866C8.44748 11.5928 8.50016 11.4656 8.50016 11.333V4.66634ZM5.16683 5.99967C5.16683 5.86707 5.11415 5.73989 5.02038 5.64612C4.92661 5.55235 4.79944 5.49967 4.66683 5.49967C4.53422 5.49967 4.40704 5.55235 4.31328 5.64612C4.21951 5.73989 4.16683 5.86707 4.16683 5.99967V9.99967C4.16683 10.1323 4.21951 10.2595 4.31328 10.3532C4.40704 10.447 4.53422 10.4997 4.66683 10.4997C4.79944 10.4997 4.92661 10.447 5.02038 10.3532C5.11415 10.2595 5.16683 10.1323 5.16683 9.99967V5.99967ZM11.8335 6.66634C11.8335 6.53373 11.7808 6.40656 11.687 6.31279C11.5933 6.21902 11.4661 6.16634 11.3335 6.16634C11.2009 6.16634 11.0737 6.21902 10.9799 6.31279C10.8862 6.40656 10.8335 6.53373 10.8335 6.66634V9.33301C10.8335 9.46562 10.8862 9.59279 10.9799 9.68656C11.0737 9.78033 11.2009 9.83301 11.3335 9.83301C11.4661 9.83301 11.5933 9.78033 11.687 9.68656C11.7808 9.59279 11.8335 9.46562 11.8335 9.33301V6.66634Z" fill="#662D91"/>
</svg>
