<svg width="30" height="38" viewBox="0 0 30 38" fill="none" xmlns="http://www.w3.org/2000/svg">
<path d="M19.19 8.70084C21.584 8.70084 23.5251 6.75309 23.5251 4.35042C23.5251 1.94775 21.584 0 19.19 0C16.7954 0 14.8542 1.94775 14.8542 4.35042C14.8542 6.75309 16.7954 8.70084 19.19 8.70084Z" fill="white" fill-opacity="0.41"/>
<path d="M25.8009 15.8754C23.7726 12.6798 20.6257 10.4682 16.9396 9.64717C13.2527 8.82708 9.46887 9.49545 6.28438 11.5316C3.09982 13.5668 0.89593 16.7248 0.0776886 20.4238C-0.310255 22.1781 0.792592 23.9154 2.54085 24.3047L15.4464 27.177C17.1956 27.5654 18.926 26.4597 19.314 24.7054C19.7019 22.951 18.5995 21.2138 16.851 20.8244L7.81452 18.8128C9.57143 16.5287 12.5473 15.3343 15.535 15.9998C17.5306 16.4439 19.2331 17.641 20.3313 19.3708C21.4295 21.1006 21.7903 23.1556 21.3479 25.1579C20.5664 28.6919 17.4601 31.1146 14 31.1702L11.8621 33.5401L11.186 30.6734C9.73958 30.1286 8.48575 29.1642 7.59334 27.8737C6.57254 26.3975 4.55216 26.0308 3.08104 27.0545C1.60993 28.0792 1.24445 30.1059 2.26469 31.5822C4.29665 34.5223 7.33377 36.568 10.8162 37.3428C11.5928 37.5153 12.375 37.6227 13.1543 37.6643C16.0716 37.8208 18.9581 37.0647 21.4714 35.4584C24.6559 33.4232 26.8594 30.2652 27.6778 26.5662C28.4963 22.8682 27.8292 19.072 25.8009 15.8754Z" fill="white" fill-opacity="0.41"/>
<path d="M29.9014 34.5812L25.9061 32.2839C25.7603 32.2 25.5838 32.3263 25.6159 32.4913L26.4811 37.0302C26.5111 37.1867 26.7023 37.2442 26.8132 37.131L27.7021 36.2223L28.6922 37.6156C28.8136 37.7863 29.0495 37.8258 29.219 37.7042L29.6446 37.3997C29.8149 37.2782 29.8547 37.0415 29.7333 36.8709L28.7432 35.4776L29.8888 34.93C30.0312 34.8611 30.0382 34.6603 29.9014 34.5812Z" fill="white" fill-opacity="0.41"/>
</svg>
