<svg width="17" height="16" viewBox="0 0 17 16" fill="none" xmlns="http://www.w3.org/2000/svg">
<path fill-rule="evenodd" clip-rule="evenodd" d="M8.49992 14.6667C12.1819 14.6667 15.1666 11.682 15.1666 8C15.1666 4.318 12.1819 1.33334 8.49992 1.33334C4.81792 1.33334 1.83325 4.318 1.83325 8C1.83325 11.682 4.81792 14.6667 8.49992 14.6667ZM7.14658 5.64667C7.24034 5.55304 7.36742 5.50044 7.49992 5.50044C7.63242 5.50044 7.7595 5.55304 7.85325 5.64667L9.85325 7.64667C9.94689 7.74042 9.99948 7.8675 9.99948 8C9.99948 8.1325 9.94689 8.25958 9.85325 8.35334L7.85325 10.3533C7.80748 10.4025 7.75228 10.4419 7.69094 10.4692C7.62961 10.4965 7.5634 10.5112 7.49627 10.5124C7.42913 10.5136 7.36245 10.5012 7.30019 10.4761C7.23793 10.4509 7.18137 10.4135 7.13389 10.366C7.08641 10.3185 7.04898 10.262 7.02384 10.1997C6.99869 10.1375 6.98634 10.0708 6.98752 10.0037C6.98871 9.93652 7.0034 9.87031 7.03073 9.80898C7.05806 9.74764 7.09746 9.69244 7.14658 9.64667L8.79325 8L7.14658 6.35334C7.05295 6.25959 7.00036 6.1325 7.00036 6C7.00036 5.8675 7.05295 5.74042 7.14658 5.64667Z" fill="#FFB215"/>
</svg>
