<svg width="16" height="16" viewBox="0 0 16 16" fill="none" xmlns="http://www.w3.org/2000/svg">
<path d="M11.3333 9.33333C11.5101 9.33333 11.6797 9.2631 11.8047 9.13807C11.9298 9.01305 12 8.84348 12 8.66667C12 8.48986 11.9298 8.32029 11.8047 8.19526C11.6797 8.07024 11.5101 8 11.3333 8C11.1565 8 10.987 8.07024 10.8619 8.19526C10.7369 8.32029 10.6667 8.48986 10.6667 8.66667C10.6667 8.84348 10.7369 9.01305 10.8619 9.13807C10.987 9.2631 11.1565 9.33333 11.3333 9.33333ZM11.3333 12C11.5101 12 11.6797 11.9298 11.8047 11.8047C11.9298 11.6797 12 11.5101 12 11.3333C12 11.1565 11.9298 10.987 11.8047 10.8619C11.6797 10.7369 11.5101 10.6667 11.3333 10.6667C11.1565 10.6667 10.987 10.7369 10.8619 10.8619C10.7369 10.987 10.6667 11.1565 10.6667 11.3333C10.6667 11.5101 10.7369 11.6797 10.8619 11.8047C10.987 11.9298 11.1565 12 11.3333 12ZM8.66667 8.66667C8.66667 8.84348 8.59643 9.01305 8.4714 9.13807C8.34638 9.2631 8.17681 9.33333 8 9.33333C7.82319 9.33333 7.65362 9.2631 7.5286 9.13807C7.40357 9.01305 7.33333 8.84348 7.33333 8.66667C7.33333 8.48986 7.40357 8.32029 7.5286 8.19526C7.65362 8.07024 7.82319 8 8 8C8.17681 8 8.34638 8.07024 8.4714 8.19526C8.59643 8.32029 8.66667 8.48986 8.66667 8.66667ZM8.66667 11.3333C8.66667 11.5101 8.59643 11.6797 8.4714 11.8047C8.34638 11.9298 8.17681 12 8 12C7.82319 12 7.65362 11.9298 7.5286 11.8047C7.40357 11.6797 7.33333 11.5101 7.33333 11.3333C7.33333 11.1565 7.40357 10.987 7.5286 10.8619C7.65362 10.7369 7.82319 10.6667 8 10.6667C8.17681 10.6667 8.34638 10.7369 8.4714 10.8619C8.59643 10.987 8.66667 11.1565 8.66667 11.3333ZM4.66667 9.33333C4.84348 9.33333 5.01305 9.2631 5.13807 9.13807C5.2631 9.01305 5.33333 8.84348 5.33333 8.66667C5.33333 8.48986 5.2631 8.32029 5.13807 8.19526C5.01305 8.07024 4.84348 8 4.66667 8C4.48986 8 4.32029 8.07024 4.19526 8.19526C4.07024 8.32029 4 8.48986 4 8.66667C4 8.84348 4.07024 9.01305 4.19526 9.13807C4.32029 9.2631 4.48986 9.33333 4.66667 9.33333ZM4.66667 12C4.84348 12 5.01305 11.9298 5.13807 11.8047C5.2631 11.6797 5.33333 11.5101 5.33333 11.3333C5.33333 11.1565 5.2631 10.987 5.13807 10.8619C5.01305 10.7369 4.84348 10.6667 4.66667 10.6667C4.48986 10.6667 4.32029 10.7369 4.19526 10.8619C4.07024 10.987 4 11.1565 4 11.3333C4 11.5101 4.07024 11.6797 4.19526 11.8047C4.32029 11.9298 4.48986 12 4.66667 12Z" fill="white"/>
<path fill-rule="evenodd" clip-rule="evenodd" d="M4.66665 1.16638C4.79926 1.16638 4.92644 1.21906 5.0202 1.31283C5.11397 1.4066 5.16665 1.53377 5.16665 1.66638V2.17505C5.60798 2.16638 6.09398 2.16638 6.62865 2.16638H9.37065C9.90598 2.16638 10.392 2.16638 10.8333 2.17505V1.66638C10.8333 1.53377 10.886 1.4066 10.9798 1.31283C11.0735 1.21906 11.2007 1.16638 11.3333 1.16638C11.4659 1.16638 11.5931 1.21906 11.6869 1.31283C11.7806 1.4066 11.8333 1.53377 11.8333 1.66638V2.21772C12.0067 2.23105 12.1709 2.24794 12.326 2.26838C13.1073 2.37372 13.74 2.59505 14.2393 3.09372C14.738 3.59305 14.9593 4.22572 15.0647 5.00705C15.1667 5.76705 15.1667 6.73705 15.1667 7.96238V9.37038C15.1667 10.5957 15.1667 11.5664 15.0647 12.3257C14.9593 13.107 14.738 13.7397 14.2393 14.239C13.74 14.7377 13.1073 14.959 12.326 15.0644C11.566 15.1664 10.596 15.1664 9.37065 15.1664H6.62998C5.40465 15.1664 4.43398 15.1664 3.67465 15.0644C2.89332 14.959 2.26065 14.7377 1.76132 14.239C1.26265 13.7397 1.04132 13.107 0.935984 12.3257C0.833984 11.5657 0.833984 10.5957 0.833984 9.37038V7.96238C0.833984 6.73705 0.833984 5.76638 0.935984 5.00705C1.04132 4.22572 1.26265 3.59305 1.76132 3.09372C2.26065 2.59505 2.89332 2.37372 3.67465 2.26838C3.83021 2.24794 3.99443 2.23105 4.16732 2.21772V1.66638C4.16732 1.53389 4.2199 1.40681 4.31353 1.31306C4.40715 1.21931 4.53416 1.16656 4.66665 1.16638ZM3.80665 3.25972C3.13665 3.34972 2.74998 3.51905 2.46798 3.80105C2.18598 4.08305 2.01665 4.46972 1.92665 5.13972C1.91154 5.25305 1.89865 5.37283 1.88798 5.49905H14.112C14.1013 5.37283 14.0884 5.25283 14.0733 5.13905C13.9833 4.46905 13.814 4.08238 13.532 3.80038C13.25 3.51838 12.8633 3.34905 12.1927 3.25905C11.508 3.16705 10.6047 3.16572 9.33332 3.16572H6.66665C5.39532 3.16572 4.49265 3.16772 3.80665 3.25972ZM1.83332 7.99972C1.83332 7.43038 1.83332 6.93505 1.84198 6.49972H14.158C14.1667 6.93505 14.1667 7.43038 14.1667 7.99972V9.33305C14.1667 10.6044 14.1653 11.5077 14.0733 12.193C13.9833 12.863 13.814 13.2497 13.532 13.5317C13.25 13.8137 12.8633 13.983 12.1927 14.073C11.508 14.165 10.6047 14.1664 9.33332 14.1664H6.66665C5.39532 14.1664 4.49265 14.165 3.80665 14.073C3.13665 13.983 2.74998 13.8137 2.46798 13.5317C2.18598 13.2497 2.01665 12.863 1.92665 12.1924C1.83465 11.5077 1.83332 10.6044 1.83332 9.33305V7.99972Z" fill="white"/>
</svg>
