<svg width="24" height="24" viewBox="0 0 24 24" fill="none" xmlns="http://www.w3.org/2000/svg">
<path d="M9.00098 10C11.2101 10 13.001 8.20914 13.001 6C13.001 3.79086 11.2101 2 9.00098 2C6.79184 2 5.00098 3.79086 5.00098 6C5.00098 8.20914 6.79184 10 9.00098 10Z" fill="#662D91"/>
<path d="M9.00098 21.001C12.867 21.001 16.001 19.2101 16.001 17.001C16.001 14.7918 12.867 13.001 9.00098 13.001C5.13498 13.001 2.00098 14.7918 2.00098 17.001C2.00098 19.2101 5.13498 21.001 9.00098 21.001Z" fill="#662D91"/>
<path d="M20.9999 17C20.9999 18.657 18.9639 20 16.4789 20C17.2109 19.2 17.7149 18.195 17.7149 17.002C17.7149 15.807 17.2099 14.802 16.4759 14.001C18.9619 14 20.9999 15.344 20.9999 17ZM17.9999 6.00002C18.0003 6.48273 17.8841 6.9584 17.6613 7.38663C17.4385 7.81485 17.1157 8.183 16.7202 8.4598C16.3247 8.7366 15.8683 8.91388 15.3897 8.97659C14.9111 9.0393 14.4244 8.98559 13.9709 8.82002C14.459 7.96035 14.715 6.98854 14.7139 6.00002C14.7139 4.97502 14.4439 4.01302 13.9719 3.18102C14.4253 3.01565 14.9119 2.9621 15.3904 3.02491C15.8689 3.08772 16.3252 3.26503 16.7205 3.54181C17.1158 3.81859 17.4386 4.18665 17.6613 4.61477C17.884 5.04289 18.0002 5.51742 17.9999 6.00002Z" fill="#662D91"/>
</svg>
